<?xml version="1.0" encoding="UTF-8" standalone="no"?>
<!DOCTYPE svg PUBLIC "-//W3C//DTD SVG 1.1//EN" "http://www.w3.org/Graphics/SVG/1.1/DTD/svg11.dtd">
<svg xmlns="http://www.w3.org/2000/svg" version="1.1" viewBox="0.00 0.00 1773.00 1773.00">
<path fill="#000000" d="
  M 636.81 198.64
  Q 634.11 197.44 630.75 198.01
  Q 613.86 200.90 597.51 204.99
  Q 594.00 205.87 590.85 205.10
  A 0.86 0.86 0.0 0 1 590.39 203.71
  C 592.29 201.40 593.88 199.86 595.63 196.93
  Q 603.02 184.51 611.45 174.94
  Q 615.35 170.51 623.88 163.86
  Q 638.05 152.81 653.39 143.72
  C 659.33 140.20 667.90 136.61 673.55 134.08
  Q 698.83 122.75 725.62 117.78
  C 736.28 115.80 747.58 115.06 758.28 114.16
  C 762.10 113.84 764.88 114.14 768.21 114.20
  Q 770.35 114.24 768.48 113.20
  C 766.17 111.92 763.93 110.74 760.96 110.06
  Q 746.05 106.64 731.10 108.04
  C 724.90 108.62 718.77 111.25 713.01 111.92
  Q 708.05 112.49 711.97 109.40
  C 727.50 97.16 745.71 91.84 765.70 91.62
  C 772.97 91.54 782.41 92.61 789.69 93.10
  Q 794.75 93.43 801.88 92.70
  Q 808.59 92.02 820.27 91.69
  Q 830.79 91.39 839.75 92.41
  C 844.00 92.89 848.58 94.61 852.75 95.19
  Q 854.34 95.42 854.94 93.95
  Q 855.14 93.47 854.76 93.11
  C 848.86 87.69 839.88 84.68 832.67 82.47
  Q 825.30 80.22 811.53 76.82
  Q 810.86 76.66 811.07 76.01
  L 811.69 74.11
  Q 811.85 73.62 812.35 73.58
  C 820.23 72.99 826.20 72.31 832.80 72.86
  Q 845.08 73.90 859.16 77.86
  Q 880.41 83.85 900.40 91.44
  C 909.51 94.90 917.74 98.79 929.15 103.89
  A 0.70 0.70 0.0 0 0 930.13 103.19
  Q 929.67 96.75 928.13 90.04
  C 927.84 88.79 928.23 86.67 930.05 86.51
  C 933.01 86.24 935.74 88.90 938.46 91.43
  Q 945.45 97.95 949.77 102.09
  Q 956.21 108.28 963.42 117.23
  Q 977.22 134.36 987.99 149.31
  C 991.46 154.12 995.18 159.66 999.76 163.18
  C 1001.85 164.79 1004.55 165.67 1007.05 166.71
  C 1011.54 168.59 1015.06 169.10 1019.25 169.00
  A 0.88 0.88 0.0 0 0 1019.87 167.52
  Q 1017.50 165.01 1015.06 163.21
  Q 1015.02 163.18 1009.78 160.05
  Q 1006.23 157.92 1003.71 155.18
  A 0.72 0.72 0.0 0 1 1004.22 153.98
  C 1008.45 153.86 1011.39 154.03 1015.57 155.12
  C 1019.07 156.03 1024.47 157.49 1029.20 158.43
  Q 1049.26 162.40 1069.18 170.83
  Q 1093.17 180.99 1117.94 192.52
  C 1149.83 207.36 1177.78 229.22 1201.59 254.26
  C 1212.82 266.07 1223.97 281.52 1227.41 296.79
  Q 1231.35 314.28 1231.69 322.25
  Q 1232.30 336.30 1232.45 341.49
  Q 1232.66 348.49 1232.29 354.51
  C 1231.99 359.34 1231.93 366.20 1231.29 371.84
  C 1230.16 381.66 1228.42 396.40 1226.09 408.74
  Q 1224.02 419.66 1223.66 422.40
  Q 1223.26 425.46 1222.18 429.09
  Q 1221.77 430.47 1220.61 435.76
  Q 1217.70 449.05 1215.09 459.43
  Q 1211.71 472.84 1210.47 478.90
  Q 1205.56 503.09 1205.22 506.25
  Q 1204.07 516.83 1202.48 526.25
  C 1201.90 529.68 1200.13 533.95 1199.96 537.88
  Q 1199.89 539.57 1199.13 538.06
  C 1196.32 532.50 1195.99 525.37 1195.57 519.71
  Q 1195.21 514.67 1194.33 510.61
  Q 1193.46 506.58 1191.81 496.72
  Q 1191.80 496.63 1189.17 482.98
  Q 1186.76 470.52 1187.01 462.49
  Q 1187.09 459.83 1186.43 454.79
  Q 1186.13 452.53 1185.12 454.59
  Q 1184.70 455.44 1184.63 457.01
  Q 1184.46 460.80 1183.75 471.73
  Q 1183.36 477.78 1183.92 482.24
  C 1184.44 486.40 1184.40 491.00 1185.15 496.26
  Q 1186.41 505.11 1187.96 514.52
  C 1189.00 520.89 1191.67 529.78 1192.07 536.51
  Q 1192.29 540.30 1191.08 547.69
  C 1190.09 553.76 1188.46 559.78 1187.20 566.89
  Q 1185.08 578.79 1182.33 590.31
  Q 1179.37 602.71 1178.97 604.83
  C 1176.89 615.80 1175.46 620.25 1175.90 628.33
  A 0.34 0.34 0.0 0 0 1176.43 628.60
  Q 1185.14 622.68 1196.51 623.36
  Q 1201.60 623.66 1203.74 624.75
  C 1216.70 631.36 1225.69 643.01 1228.45 657.67
  Q 1230.59 669.03 1230.08 676.95
  Q 1229.14 691.75 1226.90 702.49
  Q 1224.62 713.40 1224.41 714.47
  Q 1222.84 722.35 1221.29 726.27
  Q 1220.54 728.19 1218.79 734.99
  Q 1217.87 738.55 1216.18 743.64
  Q 1209.60 763.48 1201.93 782.19
  Q 1200.49 785.72 1195.74 795.61
  Q 1191.54 804.38 1188.76 808.63
  Q 1183.72 816.37 1176.34 823.59
  Q 1170.46 829.36 1162.77 831.80
  C 1157.52 833.47 1153.58 834.29 1148.57 833.61
  Q 1140.87 832.57 1137.74 832.30
  Q 1136.89 832.23 1136.94 833.08
  Q 1137.06 834.82 1136.76 836.31
  Q 1131.76 861.07 1125.09 881.19
  Q 1118.39 901.40 1109.86 920.19
  Q 1107.75 924.82 1104.62 930.41
  C 1103.43 932.54 1103.73 934.26 1103.55 936.57
  Q 1101.06 968.46 1100.98 969.75
  Q 1099.79 990.36 1099.17 1006.89
  Q 1098.85 1015.34 1098.85 1023.79
  C 1098.84 1048.56 1098.68 1062.02 1099.20 1072.75
  Q 1100.02 1089.70 1101.56 1103.72
  C 1102.55 1112.69 1105.10 1122.70 1107.92 1130.33
  C 1109.54 1134.72 1117.21 1129.67 1119.83 1128.77
  Q 1131.90 1124.61 1144.98 1122.66
  Q 1148.85 1122.08 1153.01 1122.88
  Q 1166.20 1125.43 1178.99 1132.55
  Q 1198.54 1143.42 1212.95 1152.13
  Q 1222.42 1157.85 1230.20 1162.17
  Q 1240.68 1167.99 1274.34 1187.34
  Q 1283.12 1192.38 1291.76 1197.15
  C 1307.83 1206.01 1326.77 1217.46 1344.69 1226.92
  Q 1367.85 1239.15 1392.10 1252.24
  Q 1403.33 1258.31 1432.87 1273.26
  Q 1454.64 1284.28 1476.24 1296.75
  Q 1483.35 1300.86 1492.60 1307.34
  Q 1513.61 1322.07 1532.61 1338.46
  Q 1537.23 1342.44 1551.44 1356.43
  C 1568.92 1373.63 1584.20 1392.92 1597.21 1413.56
  Q 1610.67 1434.93 1618.38 1450.41
  C 1632.80 1479.34 1643.56 1510.02 1651.14 1541.33
  C 1655.40 1558.91 1659.11 1574.67 1661.57 1591.75
  A 1.47 1.46 72.7 0 1 1660.79 1593.25
  Q 1655.70 1595.82 1650.07 1597.88
  Q 1602.88 1615.15 1576.81 1622.41
  Q 1574.65 1623.01 1560.68 1627.22
  Q 1552.71 1629.62 1544.47 1631.78
  Q 1517.93 1638.71 1489.73 1645.18
  C 1480.00 1647.42 1469.66 1648.96 1459.54 1651.39
  C 1452.45 1653.08 1443.93 1654.23 1437.76 1655.52
  Q 1420.13 1659.20 1402.97 1662.15
  Q 1361.26 1669.32 1317.03 1674.83
  Q 1295.92 1677.46 1276.72 1679.30
  C 1253.58 1681.51 1224.80 1684.83 1211.25 1685.83
  Q 1190.13 1687.37 1177.07 1688.39
  Q 1169.23 1689.00 1157.21 1689.64
  Q 1142.52 1690.43 1125.70 1691.82
  Q 1116.99 1692.54 1068.25 1694.90
  Q 1046.99 1695.94 1041.01 1696.28
  Q 1032.15 1696.79 1016.43 1697.15
  Q 1010.27 1697.29 1005.11 1697.87
  Q 998.42 1698.61 993.86 1698.41
  Q 993.70 1698.40 990.78 1698.54
  Q 977.19 1699.17 966.67 1699.21
  Q 962.64 1699.23 953.84 1699.50
  Q 943.56 1699.82 941.02 1699.80
  Q 939.50 1699.78 937.77 1699.83
  Q 930.11 1700.05 894.50 1700.04
  C 893.26 1700.04 891.74 1700.37 890.33 1700.37
  Q 859.94 1700.43 851.75 1700.37
  C 850.65 1700.37 849.30 1700.07 848.07 1700.07
  Q 824.28 1700.02 800.50 1700.05
  C 799.02 1700.05 797.19 1699.52 795.48 1699.57
  Q 788.81 1699.78 782.15 1699.53
  Q 773.12 1699.18 768.84 1699.15
  Q 754.46 1699.05 740.70 1698.10
  Q 730.54 1697.39 720.75 1697.10
  Q 712.86 1696.86 681.78 1695.42
  Q 656.57 1694.26 651.10 1693.63
  C 646.05 1693.05 640.53 1693.32 635.74 1693.05
  Q 596.75 1690.88 594.98 1690.77
  Q 591.09 1690.53 587.15 1690.04
  Q 582.27 1689.42 579.34 1689.23
  Q 496.58 1683.72 428.03 1674.45
  Q 423.98 1673.90 420.03 1673.40
  Q 410.22 1672.14 396.30 1669.98
  C 385.52 1668.31 376.34 1667.15 366.97 1665.38
  C 359.43 1663.95 349.82 1662.90 341.43 1661.28
  Q 316.30 1656.43 284.79 1649.16
  Q 270.41 1645.84 256.34 1642.01
  Q 237.58 1636.90 237.43 1636.86
  Q 184.95 1622.81 134.43 1604.40
  Q 123.73 1600.50 118.24 1598.16
  Q 114.74 1596.67 112.06 1594.07
  A 1.63 1.62 28.2 0 1 111.60 1592.56
  Q 120.73 1550.99 135.03 1510.77
  Q 138.32 1501.54 147.59 1479.23
  Q 151.47 1469.89 155.87 1461.02
  Q 167.16 1438.28 179.03 1418.79
  Q 186.20 1407.03 193.88 1396.87
  Q 207.54 1378.81 224.04 1361.17
  Q 231.71 1352.97 238.10 1346.96
  C 256.64 1329.54 277.31 1313.17 299.35 1299.58
  Q 330.12 1280.61 359.74 1266.75
  Q 367.04 1263.33 372.88 1260.44
  C 395.05 1249.46 417.37 1238.93 432.61 1230.85
  Q 444.11 1224.75 471.12 1209.27
  Q 479.69 1204.36 488.59 1199.53
  Q 540.13 1171.62 595.50 1138.23
  Q 599.58 1135.77 609.74 1130.66
  Q 618.90 1126.05 624.66 1124.70
  Q 640.21 1121.06 655.72 1126.80
  Q 658.73 1127.92 666.60 1131.93
  Q 667.62 1132.45 670.01 1132.54
  Q 670.52 1132.56 670.91 1132.24
  Q 673.21 1130.32 674.00 1129.25
  Q 677.85 1124.02 682.35 1119.33
  C 683.13 1118.51 682.94 1116.78 682.92 1115.80
  Q 682.82 1111.39 684.23 1092.50
  Q 684.44 1089.63 685.36 1066.58
  C 685.85 1054.08 685.67 1043.74 685.92 1029.32
  Q 686.24 1011.15 685.87 982.01
  Q 685.60 960.87 684.48 943.34
  Q 683.87 933.88 678.97 925.92
  C 669.87 911.09 662.83 898.39 656.63 883.17
  C 654.09 876.92 650.58 868.75 648.40 861.84
  Q 642.41 842.85 639.91 830.75
  Q 639.90 830.68 639.62 828.14
  A 0.44 0.44 0.0 0 0 638.88 827.87
  Q 637.92 828.76 636.70 829.39
  C 627.92 833.90 619.43 837.56 609.69 834.56
  Q 605.09 833.15 599.65 827.86
  Q 589.93 818.41 583.89 808.30
  Q 570.27 785.53 557.30 755.18
  C 552.41 743.73 548.04 730.71 545.05 720.04
  Q 542.71 711.68 540.85 699.01
  Q 538.45 682.64 542.58 663.13
  C 546.38 645.17 554.21 626.88 572.47 621.34
  C 578.41 619.54 583.37 620.32 589.17 621.56
  A 0.51 0.51 0.0 0 0 589.75 620.88
  Q 588.19 616.90 587.11 612.42
  C 584.91 603.33 579.93 581.32 575.12 566.13
  Q 565.27 534.97 562.32 526.69
  Q 557.74 513.82 556.11 508.38
  Q 554.09 501.62 553.90 490.46
  C 553.85 487.45 553.16 484.47 553.01 481.79
  Q 552.85 478.93 551.32 481.35
  Q 547.17 487.90 545.09 495.88
  Q 544.50 498.13 544.30 495.82
  Q 543.72 489.23 543.32 486.39
  Q 542.63 481.59 543.13 476.99
  Q 544.71 462.29 546.93 454.81
  Q 546.94 454.76 549.50 446.93
  Q 551.94 439.46 551.75 432.09
  Q 551.72 430.82 551.28 430.22
  A 0.94 0.94 0.0 0 0 549.66 430.40
  Q 546.84 436.80 544.29 442.48
  C 541.90 447.81 540.90 452.02 539.99 457.29
  C 539.20 461.83 538.84 469.85 537.14 475.84
  Q 536.73 477.25 536.27 475.86
  Q 535.72 474.23 533.77 469.12
  C 531.79 463.92 530.32 458.31 528.22 452.37
  Q 526.77 448.27 524.30 439.44
  C 522.68 433.64 522.34 428.11 521.35 421.57
  C 520.75 417.61 520.63 412.11 521.15 408.38
  C 522.48 398.84 523.51 390.25 527.04 382.29
  Q 535.56 363.09 543.51 344.28
  A 6.23 6.22 -39.7 0 0 543.86 340.53
  Q 542.48 334.10 541.31 329.52
  C 538.47 318.36 537.53 306.49 539.19 295.70
  C 541.10 283.28 551.33 271.52 562.13 265.67
  Q 564.65 264.30 571.65 261.15
  Q 578.14 258.24 581.48 257.39
  Q 584.21 256.69 581.42 256.34
  C 569.19 254.79 558.33 261.26 547.30 265.20
  Q 546.82 265.37 546.84 264.87
  Q 547.08 259.60 547.97 256.99
  C 553.59 240.54 565.20 228.62 580.60 220.85
  Q 594.40 213.88 609.01 208.79
  Q 620.86 204.66 624.49 203.17
  C 628.47 201.54 631.99 200.65 636.79 199.10
  Q 637.39 198.90 636.81 198.64
  Z"
/>
</svg>
